<?xml version="1.0" encoding="utf-8"?>
<!-- Generator: Adobe Illustrator 27.5.0, SVG Export Plug-In . SVG Version: 6.00 Build 0)  -->
<svg version="1.1" id="Calque_1" xmlns="http://www.w3.org/2000/svg" xmlns:xlink="http://www.w3.org/1999/xlink" x="0px" y="0px"
	 viewBox="0 0 300 300" style="enable-background:new 0 0 300 300;" xml:space="preserve">
<style type="text/css">
	.st0{fill:#FFFFFF;}
	.st1{fill:#0c4a6e;}
</style>
<g>
	<circle class="st0" cx="150" cy="150" r="150"/>
</g>
<g>
	<path class="st1" d="M150,84.02c21.32,0,23.84,0.08,32.26,0.47c7.78,0.36,12.01,1.66,14.82,2.75c3.73,1.45,6.39,3.18,9.18,5.97
		c2.79,2.79,4.52,5.45,5.97,9.18c1.09,2.81,2.39,7.04,2.75,14.82c0.38,8.42,0.47,10.94,0.47,32.26s-0.08,23.84-0.47,32.26
		c-0.36,7.78-1.66,12.01-2.75,14.82c-1.45,3.73-3.18,6.39-5.97,9.18c-2.79,2.79-5.45,4.52-9.18,5.97
		c-2.81,1.09-7.04,2.39-14.82,2.75c-8.42,0.38-10.94,0.47-32.26,0.47s-23.84-0.08-32.26-0.47c-7.78-0.36-12.01-1.66-14.82-2.75
		c-3.73-1.45-6.39-3.18-9.18-5.97c-2.79-2.79-4.52-5.45-5.97-9.18c-1.09-2.81-2.39-7.04-2.75-14.82
		c-0.38-8.42-0.47-10.94-0.47-32.26s0.08-23.84,0.47-32.26c0.36-7.78,1.66-12.01,2.75-14.82c1.45-3.73,3.18-6.39,5.97-9.18
		c2.79-2.79,5.45-4.52,9.18-5.97c2.81-1.09,7.04-2.39,14.82-2.75C126.16,84.1,128.68,84.02,150,84.02 M150,69.64
		c-21.68,0-24.4,0.09-32.91,0.48c-8.5,0.39-14.3,1.74-19.38,3.71c-5.25,2.04-9.7,4.77-14.14,9.21c-4.44,4.44-7.17,8.89-9.21,14.14
		c-1.97,5.08-3.32,10.88-3.71,19.38c-0.39,8.51-0.48,11.23-0.48,32.91c0,21.68,0.09,24.4,0.48,32.91c0.39,8.5,1.74,14.3,3.71,19.38
		c2.04,5.25,4.77,9.7,9.21,14.14c4.44,4.44,8.89,7.17,14.14,9.21c5.08,1.97,10.88,3.32,19.38,3.71c8.51,0.39,11.23,0.48,32.91,0.48
		s24.4-0.09,32.91-0.48c8.5-0.39,14.3-1.74,19.38-3.71c5.25-2.04,9.7-4.77,14.14-9.21c4.44-4.44,7.17-8.89,9.21-14.14
		c1.97-5.08,3.32-10.88,3.71-19.38c0.39-8.51,0.48-11.23,0.48-32.91s-0.09-24.4-0.48-32.91c-0.39-8.5-1.74-14.3-3.71-19.38
		c-2.04-5.25-4.77-9.7-9.21-14.14c-4.44-4.44-8.89-7.17-14.14-9.21c-5.08-1.97-10.88-3.32-19.38-3.71
		C174.4,69.73,171.68,69.64,150,69.64L150,69.64z"/>
	<path class="st1" d="M150,108.47c-22.64,0-40.99,18.35-40.99,40.99s18.35,40.99,40.99,40.99s40.99-18.35,40.99-40.99
		S172.64,108.47,150,108.47z M150,176.07c-14.7,0-26.61-11.91-26.61-26.61c0-14.7,11.91-26.61,26.61-26.61
		c14.7,0,26.61,11.91,26.61,26.61C176.61,164.16,164.7,176.07,150,176.07z"/>
	<circle class="st1" cx="192.61" cy="106.85" r="9.58"/>
</g>
</svg>
